<svg xmlns="http://www.w3.org/2000/svg" width="292.431" height="95.454" viewBox="0 0 292.431 95.454">
    <defs>
        <style>
            .cls-1{fill:#3780ff}.cls-2{fill:#38b137}.cls-3{fill:#fa3913}.cls-4{fill:#fcbd06}
        </style>
    </defs>
    <g id="google-2015" transform="translate(.003)">
        <path id="Path_1912" d="M36.012 0h2.6A35.485 35.485 0 0 1 62.9 10.255c-2.355 2.4-4.759 4.71-7.065 7.114a26.538 26.538 0 0 0-44.551 16 27.313 27.313 0 0 0 5.937 21.1 26.261 26.261 0 0 0 19.135 9.421c6.869.393 14.033-1.717 19.037-6.526 3.925-3.386 5.741-8.537 6.329-13.542-8.145 0-16.29.049-24.435 0V33.708h34.3c1.766 10.843-.785 23.061-9.028 30.813A33.533 33.533 0 0 1 41.7 73.892a38.3 38.3 0 0 1-21.932-4.318A37.761 37.761 0 0 1 2.256 49.605a36.177 36.177 0 0 1-.246-24.484A37.355 37.355 0 0 1 15.5 7.213 38.52 38.52 0 0 1 36.012 0z" class="cls-1" data-name="Path 1912"/>
        <path id="Path_1913" d="M474.4 5.2h10.5v70.065c-3.484 0-7.016.049-10.5-.049.049-23.306 0-46.661 0-70.016z" class="cls-2" data-name="Path 1913" transform="translate(-241.635 -2.649)"/>
        <path id="Path_1914" d="M173.525 54.248a24.655 24.655 0 0 1 18.841 4.023 23.046 23.046 0 0 1 9.273 14.72 23.726 23.726 0 0 1-24.925 28.458 23.878 23.878 0 0 1-17.86-9.568 24.527 24.527 0 0 1-3.238-22.276 23.284 23.284 0 0 1 17.909-15.357M175 63.571a13.191 13.191 0 0 0-6.869 4.367c-4.759 5.692-4.465 14.965.785 20.264a13.065 13.065 0 0 0 11.678 3.631 13.214 13.214 0 0 0 9.126-6.722c3.238-5.839 2.306-13.885-2.65-18.449A13.238 13.238 0 0 0 175 63.571z" class="cls-3" data-name="Path 1914" transform="translate(-78.585 -27.409)"/>
        <path id="Path_1915" d="M279.541 54.244a24.4 24.4 0 0 1 21.049 5.839c9.028 8.1 10.009 23.257 2.306 32.579a24.268 24.268 0 0 1-38.026-.785 24.763 24.763 0 0 1-3.091-22.766 23.3 23.3 0 0 1 17.762-14.867m1.472 9.322a13.417 13.417 0 0 0-6.869 4.318 15.585 15.585 0 0 0 .54 20.068 13.129 13.129 0 0 0 11.972 3.876 13.46 13.46 0 0 0 9.126-6.722c3.189-5.888 2.257-13.935-2.748-18.5a13.153 13.153 0 0 0-12.021-3.042z" class="cls-4" data-name="Path 1915" transform="translate(-132.592 -27.406)"/>
        <path id="Path_1916" d="M377.462 57.089c5.643-3.533 13.15-4.514 19.234-1.472a18.329 18.329 0 0 1 5 3.68c.049-1.325 0-2.7.049-4.072 3.287.049 6.575 0 9.911.049v43.275c-.049 6.526-1.717 13.444-6.428 18.2-5.152 5.25-13.051 6.869-20.166 5.79a22.817 22.817 0 0 1-17.173-13.689c2.944-1.423 6.035-2.551 9.077-3.876 1.717 4.023 5.2 7.458 9.568 8.243s9.421-.294 12.266-3.925c3.042-3.729 3.042-8.832 2.895-13.395a17.418 17.418 0 0 1-8 4.907c-6.82 1.914-14.327-.442-19.577-5.054a24.153 24.153 0 0 1 3.336-38.663m10.157 6.28a12.908 12.908 0 0 0-7.7 4.465 15.653 15.653 0 0 0 .049 19.675A12.837 12.837 0 0 0 391 92.023a12.467 12.467 0 0 0 9.371-6.231 16.561 16.561 0 0 0-1.668-18.547 12.074 12.074 0 0 0-11.089-3.876z" class="cls-1" data-name="Path 1916" transform="translate(-186.403 -27.404)"/>
        <path id="Path_1917" d="M513.777 59.559a22.144 22.144 0 0 1 22.523-4.465c7.164 2.7 11.727 9.519 14.033 16.535-10.647 4.416-21.245 8.783-31.892 13.2a12.653 12.653 0 0 0 6.771 6.379 13.744 13.744 0 0 0 12.953-1.864 20.888 20.888 0 0 0 3.631-3.876c2.7 1.815 5.4 3.582 8.1 5.4a24.023 24.023 0 0 1-37.928 2.4c-8.145-9.421-7.36-25.22 1.815-33.708m5.25 9.077a14.009 14.009 0 0 0-2.306 8.243q10.666-4.417 21.338-8.88a8.826 8.826 0 0 0-6.918-4.857c-4.662-.836-9.519 1.666-12.12 5.493z" class="cls-3" data-name="Path 1917" transform="translate(-257.903 -27.372)"/>
    </g>
</svg>
